<?xml version="1.0" encoding="utf-8"?>
<!-- Generator: Adobe Illustrator 16.0.0, SVG Export Plug-In . SVG Version: 6.00 Build 0)  -->
<!DOCTYPE svg PUBLIC "-//W3C//DTD SVG 1.1//EN" "http://www.w3.org/Graphics/SVG/1.1/DTD/svg11.dtd">
<svg version="1.1" id="Layer_1" xmlns="http://www.w3.org/2000/svg" xmlns:xlink="http://www.w3.org/1999/xlink" x="0px" y="0px"
	 width="200px" height="200px" viewBox="0 0 200 200" style="enable-background:new 0 0 200 200;" xml:space="preserve">
<style type="text/css">
<![CDATA[
	.st0{enable-background:new    ;}
	.st1{fill:none;}
]]>
</style>
<rect x="51.3" y="21.5" class="st1" width="256.4" height="209.1"/>
<g class="st0">
	<path d="M80.4,124.1c12.5,2.8,25.1,15.5,40.3,15.5c3.2,0,6.6-0.5,10.1-1.9c-1.2,11.5-6,18.8-12.5,18.8c-17.2,0-32.3-27.2-53.5-27.2
		c-1,0-1.8,0-2.8,0.1L80,46.3c-10.4,4.3-16.8,13.3-16.8,26.2c0,6.1,1.6,7.1,1.7,8.2c-8.3,0-12.8-3-12.8-11.6
		c0-16,22.1-31.2,42.1-31.2c1.7,0,3.2,0.1,4.8,0.2L80.4,124.1z"/>
	<path d="M122.2,66.5l-8.6,40.8c-0.2,1-0.4,2-0.4,3c0,2.8,0.8,5.3,3.6,5.3c4.7,0,7.8-4.6,9.6-10.6l8.2-38.5h17.3l-8.6,40.8
		c-0.4,1.6-0.5,2.8-0.5,3.8c0,3.4,1.6,4.4,4.9,4.4c2.3,0,2.9-0.4,4-0.7c-0.6,8.6-6.8,12.4-13.3,12.4c-6.6,0-10.9-4.3-11.8-11.4
		c-6,9.8-12.8,11.4-17.9,11.4c-7.2,0-12.8-4.3-12.8-14.4c0-2.3,0.4-4.9,1-7.8l8.2-38.5H122.2z"/>
</g>
</svg>
