<?xml version="1.0" encoding="utf-8"?>
<!-- Generator: Adobe Illustrator 16.0.0, SVG Export Plug-In . SVG Version: 6.00 Build 0)  -->
<!DOCTYPE svg PUBLIC "-//W3C//DTD SVG 1.1//EN" "http://www.w3.org/Graphics/SVG/1.1/DTD/svg11.dtd">
<svg version="1.1" id="Layer_1" xmlns="http://www.w3.org/2000/svg" xmlns:xlink="http://www.w3.org/1999/xlink" x="0px" y="0px"
	 width="250px" height="160px" viewBox="0 0 250 160" enable-background="new 0 0 250 160" xml:space="preserve">
<rect x="-3" y="-6" fill="none" width="250" height="160"/>
<g enable-background="new    ">
	<path fill="#FFFFFF" d="M5.316,119.859L55.66,19.664c-1.501,0-3.399-0.058-5.695-0.176c-2.297-0.116-4.711-0.176-7.242-0.176
		c-1.688,0-3.329,0.047-4.922,0.141c-1.594,0.095-3,0.258-4.219,0.492c-1.22,0.235-2.204,0.563-2.953,0.984
		c-0.75,0.422-1.125,0.961-1.125,1.617c0.515,0,1.042,0.329,1.582,0.984c0.538,0.657,0.809,1.853,0.809,3.586
		c0,1.594-0.281,2.918-0.844,3.973s-1.266,1.898-2.109,2.531s-1.758,1.079-2.742,1.336c-0.984,0.258-1.898,0.387-2.742,0.387
		c-1.406,0-2.579-0.257-3.516-0.773c-0.938-0.515-1.7-1.171-2.285-1.969c-0.587-0.796-0.997-1.71-1.23-2.742
		c-0.235-1.03-0.352-2.039-0.352-3.023c0-1.828,0.387-3.632,1.16-5.414c0.773-1.781,1.898-3.386,3.375-4.816
		c1.477-1.429,3.315-2.577,5.52-3.445c2.203-0.867,4.757-1.301,7.664-1.301h49.359l-49.641,98.648c1.969,0,4.171,0.047,6.609,0.141
		c2.437,0.095,4.852,0.141,7.242,0.141c1.688,0,3.328-0.035,4.922-0.105c1.593-0.07,3.059-0.222,4.395-0.457
		c1.336-0.234,2.496-0.551,3.48-0.949c0.984-0.397,1.71-0.949,2.18-1.652c-0.517,0-1.079-0.305-1.688-0.914
		c-0.61-0.608-0.914-1.804-0.914-3.586c0-1.547,0.269-2.848,0.809-3.902c0.538-1.055,1.218-1.909,2.039-2.566
		c0.819-0.656,1.746-1.125,2.777-1.406c1.03-0.281,2.039-0.422,3.023-0.422c1.312,0,2.437,0.246,3.375,0.738
		c0.937,0.492,1.698,1.125,2.285,1.898c0.585,0.773,1.007,1.664,1.266,2.672c0.257,1.009,0.387,2.004,0.387,2.988
		c0,1.828-0.422,3.738-1.266,5.73c-0.844,1.993-2.063,3.797-3.656,5.414c-1.594,1.617-3.528,2.953-5.801,4.008
		c-2.274,1.055-4.841,1.582-7.699,1.582H5.316z"/>
	<path fill="#FFFFFF" d="M109.098,109.031c0,1.594-0.306,3.083-0.914,4.465c-0.61,1.383-1.441,2.591-2.496,3.621
		c-1.055,1.031-2.274,1.84-3.656,2.426c-1.383,0.586-2.872,0.879-4.465,0.879c-1.594,0-3.083-0.293-4.465-0.879
		c-1.383-0.586-2.591-1.395-3.621-2.426c-1.032-1.03-1.84-2.238-2.426-3.621c-0.587-1.382-0.879-2.871-0.879-4.465
		c0-1.593,0.292-3.082,0.879-4.465c0.585-1.382,1.394-2.59,2.426-3.621c1.03-1.03,2.238-1.852,3.621-2.461
		c1.382-0.608,2.871-0.914,4.465-0.914c1.593,0,3.082,0.306,4.465,0.914c1.382,0.609,2.602,1.431,3.656,2.461
		c1.055,1.031,1.886,2.239,2.496,3.621C108.792,105.949,109.098,107.438,109.098,109.031z"/>
	<path fill="#FFFFFF" d="M154.027,23.531c-6.375,2.626-11.32,6.551-14.836,11.777c-3.516,5.228-5.273,11.754-5.273,19.582
		c0,1.828,0.105,3.316,0.316,4.465c0.211,1.149,0.433,2.074,0.668,2.777c0.234,0.703,0.457,1.242,0.668,1.617
		c0.211,0.376,0.316,0.703,0.316,0.984c-2.485,0-4.688-0.246-6.609-0.738c-1.923-0.492-3.527-1.289-4.816-2.391
		c-1.29-1.101-2.274-2.542-2.953-4.324c-0.68-1.781-1.02-3.961-1.02-6.539c0-3.188,0.691-6.328,2.074-9.422
		c1.382-3.094,3.28-6.022,5.695-8.789c2.414-2.765,5.249-5.332,8.508-7.699c3.258-2.366,6.75-4.405,10.477-6.117
		c3.727-1.71,7.617-3.046,11.672-4.008c4.054-0.96,8.097-1.441,12.129-1.441c1.078,0,2.074,0.035,2.988,0.105
		s1.839,0.153,2.777,0.246L154.66,116.977c2.484,0.563,4.98,1.418,7.488,2.566c2.507,1.148,5.051,2.414,7.629,3.797
		c2.577,1.382,5.191,2.788,7.84,4.219c2.647,1.43,5.344,2.742,8.086,3.938s5.555,2.168,8.438,2.918
		c2.883,0.749,5.847,1.125,8.895,1.125c1.969,0,3.948-0.165,5.941-0.492c1.992-0.328,4.043-0.938,6.152-1.828
		c-0.422,3.469-1.066,6.598-1.934,9.387c-0.868,2.788-1.934,5.168-3.199,7.137s-2.731,3.48-4.395,4.535
		c-1.664,1.055-3.48,1.582-5.449,1.582c-3.422,0-6.797-0.809-10.125-2.426c-3.329-1.617-6.669-3.633-10.02-6.047
		c-3.352-2.415-6.739-5.039-10.16-7.875c-3.422-2.837-6.938-5.461-10.547-7.875c-3.61-2.415-7.348-4.43-11.215-6.047
		s-7.935-2.426-12.199-2.426c-0.563,0-1.102,0-1.617,0c-0.517,0-1.079,0.046-1.688,0.141L154.027,23.531z"/>
	<path fill="#FFFFFF" d="M219.559,47.859h20.742l-10.336,48.938c-0.235,0.798-0.398,1.582-0.492,2.355
		c-0.095,0.773-0.141,1.536-0.141,2.285c0,2.016,0.48,3.41,1.441,4.184c0.96,0.773,2.449,1.16,4.465,1.16
		c0.703,0,1.276-0.023,1.723-0.07c0.445-0.046,0.844-0.116,1.195-0.211c0.352-0.094,0.668-0.199,0.949-0.316
		c0.281-0.116,0.586-0.222,0.914-0.316c-0.188,2.626-0.75,4.863-1.688,6.715c-0.938,1.853-2.134,3.387-3.586,4.605
		c-1.453,1.22-3.105,2.109-4.957,2.672c-1.853,0.563-3.762,0.844-5.73,0.844c-4.078,0-7.324-1.184-9.738-3.551
		c-2.415-2.366-3.879-5.73-4.395-10.09c-1.782,2.953-3.621,5.32-5.52,7.102c-1.898,1.782-3.773,3.164-5.625,4.148
		c-1.853,0.984-3.656,1.628-5.414,1.934c-1.758,0.305-3.387,0.457-4.887,0.457c-2.156,0-4.173-0.328-6.047-0.984
		c-1.875-0.656-3.505-1.688-4.887-3.094c-1.383-1.406-2.473-3.188-3.27-5.344c-0.797-2.155-1.195-4.757-1.195-7.805
		c0-1.312,0.095-2.753,0.281-4.324c0.188-1.57,0.469-3.27,0.844-5.098l9.773-46.195h20.742l-10.336,48.938
		c-0.281,1.22-0.422,2.438-0.422,3.656c0,0.844,0.07,1.642,0.211,2.391c0.141,0.75,0.375,1.418,0.703,2.004
		c0.327,0.587,0.762,1.055,1.301,1.406c0.538,0.352,1.23,0.527,2.074,0.527c1.406,0,2.695-0.316,3.867-0.949
		c1.171-0.633,2.238-1.512,3.199-2.637c0.96-1.125,1.804-2.472,2.531-4.043c0.727-1.57,1.371-3.27,1.934-5.098L219.559,47.859z"/>
</g>
</svg>
